<?xml version="1.0" encoding="UTF-8"?>
<svg id="Layer_1" xmlns="http://www.w3.org/2000/svg" version="1.1" viewBox="0 0 360 360">
  <!-- Generator: Adobe Illustrator 29.5.0, SVG Export Plug-In . SVG Version: 2.1.0 Build 137)  -->
  <defs>
    <style>
      .st0 {
        fill: #231f20;
      }

      .st1 {
        stroke-width: 3px;
      }

      .st1, .st2, .st3, .st4 {
        fill: none;
        stroke: #231f20;
        stroke-miterlimit: 10;
      }

      .st2 {
        stroke-width: 5px;
      }

      .st3 {
        stroke-width: .5px;
      }
    </style>
  </defs>
  <line class="st4" x1="135.75" y1="239.38" x2="180" y2="97"/>
  <line class="st4" x1="230.39" y1="241" x2="180" y2="97"/>
  <path class="st1" d="M229.43,238.61c105.12-56.43-137.02-107.62-124.77-69.35"/>
  <path class="st2" d="M105.06,163.76c-12.26,21.12,65.77,17.45,130.44-12.26"/>
  <g>
    <line class="st4" x1="198.67" y1="168.7" x2="236.04" y2="151.18"/>
    <path class="st0" d="M234.41,151.94l-3.51-2.33.08-.13,6.31-.38c2.04-.46,4.09-.92,6.13-1.38-1.66,1.28-3.32,2.55-4.99,3.83l-4.33,4.61h-.14s.45-4.21.45-4.21Z"/>
  </g>
  <rect class="st3" x="146.98" y="208.2" width="67.86" height="15.58"/>
  <rect class="st3" x="167.34" y="224.03" width="67.86" height="13.93"/>
</svg>